<svg width="34" height="28" viewBox="0 0 34 28" fill="none" xmlns="http://www.w3.org/2000/svg">
<path d="M31.6512 15.3837C30.6917 14.0193 29.4654 13.135 27.9714 12.7301C28.4429 11.9207 28.6779 11.0197 28.6779 10.0274C28.6779 8.64334 28.247 7.46182 27.3856 6.48246C26.524 5.50344 25.4842 5.01372 24.2662 5.01372C23.1746 5.01372 22.2211 5.41851 21.4055 6.2281C20.7279 4.34784 19.6445 2.83986 18.1568 1.7041C16.669 0.567986 15.0287 0 13.2361 0C10.8004 0 8.72065 0.979502 6.99716 2.93803C5.27354 4.89607 4.412 7.2596 4.412 10.0276C4.412 10.1974 4.42353 10.4781 4.44647 10.8697C3.09072 11.5878 2.01078 12.6649 1.20629 14.101C0.402095 15.5375 0 17.104 0 18.8017C0 21.2173 0.755596 23.2831 2.26637 25.0001C3.7772 26.7175 5.59553 27.5758 7.72112 27.5758H26.4728C28.2994 27.5758 29.8591 26.841 31.1519 25.3724C32.4445 23.9038 33.0909 22.1315 33.0909 20.055C33.0907 18.3054 32.6109 16.7485 31.6512 15.3837ZM21.8883 16.1378L15.8387 23.0127C15.7354 23.1298 15.6032 23.1887 15.4423 23.1887C15.2815 23.1887 15.1493 23.1298 15.0459 23.0127L8.97938 16.1185C8.87598 16.0011 8.82436 15.8509 8.82436 15.668C8.82436 15.4983 8.87869 15.3514 8.98783 15.2274C9.09722 15.1034 9.22622 15.0414 9.37556 15.0414H13.2362V8.14759C13.2362 7.97788 13.2908 7.83095 13.3999 7.70672C13.5091 7.5829 13.6383 7.52095 13.7876 7.52095H17.097C17.2466 7.52095 17.3753 7.58269 17.485 7.70672C17.5939 7.83095 17.6484 7.97788 17.6484 8.14759V15.0414H21.509C21.6699 15.0414 21.8021 15.1001 21.9052 15.2175C22.0087 15.3348 22.0599 15.485 22.0599 15.6679C22.0599 15.8253 22.0029 15.9813 21.8883 16.1378Z" fill="white"/>
</svg>
